<svg width="23" height="23" viewBox="0 0 23 23" fill="none" xmlns="http://www.w3.org/2000/svg">
<path d="M11.5 20.7192C11.3588 20.7187 11.2218 20.6715 11.1103 20.585C7.55805 17.825 5.11111 15.4483 3.39889 13.1036C1.21389 10.1072 0.715552 7.34082 1.91666 4.8811C2.77277 3.12416 5.2325 1.68666 8.1075 2.5236C9.47826 2.91955 10.6742 3.76866 11.5 4.93221C12.3258 3.76866 13.5217 2.91955 14.8925 2.5236C17.7611 1.69944 20.2272 3.12416 21.0833 4.8811C22.2844 7.34082 21.7861 10.1072 19.6011 13.1036C17.8889 15.4483 15.4419 17.825 11.8897 20.585C11.7782 20.6715 11.6412 20.7187 11.5 20.7192ZM6.47194 3.56499C5.78785 3.53837 5.10943 3.69855 4.50949 4.02834C3.90956 4.35814 3.41077 4.84509 3.06666 5.43694C2.07639 7.4686 2.52361 9.73027 4.43389 12.3433C6.464 14.9619 8.84121 17.2918 11.5 19.2689C14.1584 17.2937 16.5356 14.966 18.5661 12.3497C20.4828 9.73027 20.9236 7.4686 19.9333 5.44332C19.2944 4.16555 17.3778 3.14971 15.2439 3.75027C14.5597 3.95248 13.9254 4.2957 13.3818 4.75784C12.8382 5.21999 12.3974 5.79082 12.0878 6.4336C12.0396 6.55078 11.9578 6.65101 11.8525 6.72154C11.7473 6.79207 11.6235 6.82973 11.4968 6.82973C11.3701 6.82973 11.2463 6.79207 11.1411 6.72154C11.0358 6.65101 10.954 6.55078 10.9058 6.4336C10.5985 5.78921 10.1585 5.21705 9.61457 4.75461C9.07066 4.29218 8.43515 3.94992 7.74972 3.75027C7.33443 3.62965 6.90439 3.56729 6.47194 3.56499Z" fill="#9D9D9D"/>
</svg>
