<svg width="46" height="46" viewBox="0 0 46 46" fill="none" xmlns="http://www.w3.org/2000/svg">
<path d="M13.8 6.89999C11.97 6.89999 10.215 7.62696 8.92099 8.92096C7.62699 10.215 6.90002 11.97 6.90002 13.8V17.25C6.90002 17.555 7.02119 17.8475 7.23685 18.0632C7.45252 18.2788 7.74503 18.4 8.05002 18.4C8.35502 18.4 8.64753 18.2788 8.8632 18.0632C9.07886 17.8475 9.20002 17.555 9.20002 17.25V13.8C9.20002 12.58 9.68467 11.41 10.5473 10.5473C11.41 9.68464 12.58 9.19999 13.8 9.19999H17.25C17.555 9.19999 17.8475 9.07883 18.0632 8.86317C18.2789 8.6475 18.4 8.35499 18.4 8.04999C18.4 7.74499 18.2789 7.45249 18.0632 7.23682C17.8475 7.02115 17.555 6.89999 17.25 6.89999H13.8ZM28.75 6.89999C28.445 6.89999 28.1525 7.02115 27.9368 7.23682C27.7212 7.45249 27.6 7.74499 27.6 8.04999C27.6 8.35499 27.7212 8.6475 27.9368 8.86317C28.1525 9.07883 28.445 9.19999 28.75 9.19999H32.2C33.42 9.19999 34.59 9.68464 35.4527 10.5473C36.3154 11.41 36.8 12.58 36.8 13.8V17.25C36.8 17.555 36.9212 17.8475 37.1369 18.0632C37.3525 18.2788 37.645 18.4 37.95 18.4C38.255 18.4 38.5475 18.2788 38.7632 18.0632C38.9789 17.8475 39.1 17.555 39.1 17.25V13.8C39.1 11.97 38.3731 10.215 37.0791 8.92096C35.7851 7.62696 34.03 6.89999 32.2 6.89999H28.75ZM9.20002 28.75C9.20002 28.445 9.07886 28.1525 8.8632 27.9368C8.64753 27.7212 8.35502 27.6 8.05002 27.6C7.74503 27.6 7.45252 27.7212 7.23685 27.9368C7.02119 28.1525 6.90002 28.445 6.90002 28.75V32.2C6.90002 34.03 7.62699 35.785 8.92099 37.079C10.215 38.373 11.97 39.1 13.8 39.1H17.25C17.555 39.1 17.8475 38.9788 18.0632 38.7632C18.2789 38.5475 18.4 38.255 18.4 37.95C18.4 37.645 18.2789 37.3525 18.0632 37.1368C17.8475 36.9212 17.555 36.8 17.25 36.8H13.8C12.58 36.8 11.41 36.3154 10.5473 35.4527C9.68467 34.59 9.20002 33.42 9.20002 32.2V28.75ZM39.1 28.75C39.1 28.445 38.9789 28.1525 38.7632 27.9368C38.5475 27.7212 38.255 27.6 37.95 27.6C37.645 27.6 37.3525 27.7212 37.1369 27.9368C36.9212 28.1525 36.8 28.445 36.8 28.75V32.2C36.8 33.42 36.3154 34.59 35.4527 35.4527C34.59 36.3154 33.42 36.8 32.2 36.8H28.75C28.445 36.8 28.1525 36.9212 27.9368 37.1368C27.7212 37.3525 27.6 37.645 27.6 37.95C27.6 38.255 27.7212 38.5475 27.9368 38.7632C28.1525 38.9788 28.445 39.1 28.75 39.1H32.2C34.03 39.1 35.7851 38.373 37.0791 37.079C38.3731 35.785 39.1 34.03 39.1 32.2V28.75ZM14.95 21.85C14.645 21.85 14.3525 21.9712 14.1369 22.1868C13.9212 22.4025 13.8 22.695 13.8 23C13.8 23.305 13.9212 23.5975 14.1369 23.8132C14.3525 24.0288 14.645 24.15 14.95 24.15H31.05C31.355 24.15 31.6475 24.0288 31.8632 23.8132C32.0789 23.5975 32.2 23.305 32.2 23C32.2 22.695 32.0789 22.4025 31.8632 22.1868C31.6475 21.9712 31.355 21.85 31.05 21.85H14.95Z" fill="#9D9D9D"/>
</svg>
