<svg width="93" height="98" viewBox="0 0 93 98" fill="none" xmlns="http://www.w3.org/2000/svg">
<path d="M83 49C83 70.573 66.2888 87.3788 46.5 87.3788C26.7112 87.3788 10 70.573 10 49C10 27.427 26.7112 10.6212 46.5 10.6212C66.2888 10.6212 83 27.427 83 49Z" stroke="#CDCDCD" stroke-opacity="0.2" stroke-width="20"/>
<mask id="mask0_19_44" style="mask-type:alpha" maskUnits="userSpaceOnUse" x="0" y="0" width="93" height="98">
<mask id="path-2-inside-1_19_44" fill="white">
<path d="M46.3158 0.191594C55.7439 0.152402 64.9568 3.17607 72.7119 8.85479C80.467 14.5335 86.3911 22.5941 89.6854 31.9493C92.9796 41.3046 93.4854 51.5044 91.1346 61.1732C88.7838 70.842 83.6894 79.5145 76.5387 86.0211C69.3879 92.5277 60.5247 96.5553 51.1445 97.5607C41.7643 98.5661 32.3183 96.5009 24.0807 91.6438C15.843 86.7866 9.20997 79.3711 5.07614 70.3973C0.942305 61.4236 -0.49343 51.3234 0.962577 41.459L46.5 49L46.3158 0.191594Z"/>
</mask>
<path d="M46.3158 0.191594C55.7439 0.152402 64.9568 3.17607 72.7119 8.85479C80.467 14.5335 86.3911 22.5941 89.6854 31.9493C92.9796 41.3046 93.4854 51.5044 91.1346 61.1732C88.7838 70.842 83.6894 79.5145 76.5387 86.0211C69.3879 92.5277 60.5247 96.5553 51.1445 97.5607C41.7643 98.5661 32.3183 96.5009 24.0807 91.6438C15.843 86.7866 9.20997 79.3711 5.07614 70.3973C0.942305 61.4236 -0.49343 51.3234 0.962577 41.459L46.5 49L46.3158 0.191594Z" stroke="url(#paint0_linear_19_44)" stroke-width="40" mask="url(#path-2-inside-1_19_44)"/>
</mask>
<g mask="url(#mask0_19_44)">
<path d="M46.3536 10.1915C65.7533 10.1109 82.5071 26.869 82.59 48.85C82.6729 70.831 66.0462 87.7278 46.6464 87.8085C27.2466 87.8891 10.4929 71.131 10.4099 49.15C10.327 27.1691 26.9538 10.2722 46.3536 10.1915Z" stroke="url(#paint1_linear_19_44)" stroke-width="20"/>
</g>
<defs>
<linearGradient id="paint0_linear_19_44" x1="0.410025" y1="49.1916" x2="92.5901" y2="48.8438" gradientUnits="userSpaceOnUse">
<stop stop-color="#31D6D6"/>
<stop offset="1" stop-color="#31D6D6" stop-opacity="0.8"/>
</linearGradient>
<linearGradient id="paint1_linear_19_44" x1="0.410025" y1="49.1916" x2="92.5901" y2="48.8438" gradientUnits="userSpaceOnUse">
<stop stop-color="#4EAF52"/>
<stop offset="1" stop-color="#8DF091"/>
</linearGradient>
</defs>
</svg>
