<svg width="26" height="26" viewBox="0 0 26 26" fill="none" xmlns="http://www.w3.org/2000/svg">
<path d="M13 11.9167C12.138 11.9167 11.3114 11.5742 10.7019 10.9648C10.0924 10.3553 9.75 9.52861 9.75 8.66666C9.75 7.8047 10.0924 6.97805 10.7019 6.36856C11.3114 5.75907 12.138 5.41666 13 5.41666C13.862 5.41666 14.6886 5.75907 15.2981 6.36856C15.9076 6.97805 16.25 7.8047 16.25 8.66666C16.25 9.52861 15.9076 10.3553 15.2981 10.9648C14.6886 11.5742 13.862 11.9167 13 11.9167Z" stroke="#9D9D9D" stroke-width="2" stroke-linecap="round"/>
<path d="M6.5 20.5833V19.5C6.5 18.3507 6.95655 17.2485 7.7692 16.4359C8.58186 15.6232 9.68406 15.1667 10.8333 15.1667H15.1667C16.3159 15.1667 17.4181 15.6232 18.2308 16.4359C19.0435 17.2485 19.5 18.3507 19.5 19.5V20.5833" stroke="#9D9D9D" stroke-width="2" stroke-linecap="round"/>
</svg>
